<svg width="8" height="13" viewBox="0 0 8 13" fill="none" xmlns="http://www.w3.org/2000/svg">
<path d="M0.994141 6.5714L0.653914 6.93779L0.259334 6.5714L0.653916 6.205L0.994141 6.5714ZM7.33437 11.7765C7.53672 11.9644 7.54844 12.2807 7.36054 12.4831C7.17263 12.6854 6.85627 12.6972 6.65391 12.5093L7.33437 11.7765ZM6.65392 0.633602C6.85627 0.445701 7.17264 0.45742 7.36054 0.659775C7.54844 0.862131 7.53672 1.1785 7.33437 1.3664L6.65392 0.633602ZM1.33437 6.205L7.33437 11.7765L6.65391 12.5093L0.653914 6.93779L1.33437 6.205ZM7.33437 1.3664L1.33437 6.9378L0.653916 6.205L6.65392 0.633602L7.33437 1.3664Z" fill="#A5AECA"/>
</svg>
