<svg width="13" height="14" viewBox="0 0 13 14" fill="none" xmlns="http://www.w3.org/2000/svg">
<path d="M0.988281 6.93843L0.636554 7.2938L0.277501 6.93843L0.636556 6.58306L0.988281 6.93843ZM7.34001 12.5216C7.53627 12.7158 7.53791 13.0324 7.34365 13.2286C7.1494 13.4249 6.83282 13.4265 6.63655 13.2323L7.34001 12.5216ZM6.63656 0.644628C6.83282 0.450375 7.1494 0.452008 7.34365 0.648275C7.53791 0.844541 7.53627 1.16112 7.34001 1.35537L6.63656 0.644628ZM1.34001 6.58306L7.34001 12.5216L6.63655 13.2323L0.636554 7.2938L1.34001 6.58306ZM7.34001 1.35537L1.34001 7.2938L0.636556 6.58306L6.63656 0.644628L7.34001 1.35537Z" fill="#0057FF"/>
<path d="M5.99414 6.93843L5.64241 7.2938L5.28336 6.93843L5.64242 6.58306L5.99414 6.93843ZM12.3459 12.5216C12.5421 12.7158 12.5438 13.0324 12.3495 13.2286C12.1553 13.4249 11.8387 13.4265 11.6424 13.2323L12.3459 12.5216ZM11.6424 0.644628C11.8387 0.450375 12.1553 0.452008 12.3495 0.648275C12.5438 0.844541 12.5421 1.16112 12.3459 1.35537L11.6424 0.644628ZM6.34587 6.58306L12.3459 12.5216L11.6424 13.2323L5.64241 7.2938L6.34587 6.58306ZM12.3459 1.35537L6.34587 7.2938L5.64242 6.58306L11.6424 0.644628L12.3459 1.35537Z" fill="#0057FF"/>
</svg>
