<svg width="13" height="14" viewBox="0 0 13 14" fill="none" xmlns="http://www.w3.org/2000/svg">
<path d="M12 6.93843L12.3517 7.2938L12.7108 6.93843L12.3517 6.58306L12 6.93843ZM5.64827 12.5216C5.45201 12.7158 5.45038 13.0324 5.64463 13.2286C5.83888 13.4249 6.15546 13.4265 6.35173 13.2323L5.64827 12.5216ZM6.35173 0.644628C6.15546 0.450375 5.83888 0.452008 5.64463 0.648275C5.45038 0.844541 5.45201 1.16112 5.64827 1.35537L6.35173 0.644628ZM11.6483 6.58306L5.64827 12.5216L6.35173 13.2323L12.3517 7.2938L11.6483 6.58306ZM5.64827 1.35537L11.6483 7.2938L12.3517 6.58306L6.35173 0.644628L5.64827 1.35537Z" fill="#A5AECA"/>
<path d="M6.99414 6.93843L7.34587 7.2938L7.70492 6.93843L7.34587 6.58306L6.99414 6.93843ZM0.642413 12.5216C0.446148 12.7158 0.444517 13.0324 0.63877 13.2286C0.833024 13.4249 1.1496 13.4265 1.34587 13.2323L0.642413 12.5216ZM1.34587 0.644628C1.1496 0.450375 0.833021 0.452008 0.638769 0.648275C0.444516 0.844541 0.446149 1.16112 0.642415 1.35537L1.34587 0.644628ZM6.64241 6.58306L0.642413 12.5216L1.34587 13.2323L7.34587 7.2938L6.64241 6.58306ZM0.642415 1.35537L6.64242 7.2938L7.34587 6.58306L1.34587 0.644628L0.642415 1.35537Z" fill="#A5AECA"/>
</svg>
