<svg width="8" height="13" viewBox="0 0 8 13" fill="none" xmlns="http://www.w3.org/2000/svg">
<path d="M6.99414 6.5714L7.33437 6.93779L7.72895 6.5714L7.33437 6.205L6.99414 6.5714ZM0.653914 11.7765C0.451559 11.9644 0.439843 12.2807 0.627745 12.4831C0.815647 12.6854 1.13201 12.6972 1.33437 12.5093L0.653914 11.7765ZM1.33437 0.633602C1.13201 0.445701 0.815644 0.45742 0.627743 0.659775C0.439842 0.862131 0.45156 1.1785 0.653916 1.3664L1.33437 0.633602ZM6.65391 6.205L0.653914 11.7765L1.33437 12.5093L7.33437 6.93779L6.65391 6.205ZM0.653916 1.3664L6.65392 6.9378L7.33437 6.205L1.33437 0.633602L0.653916 1.3664Z" fill="#A5AECA"/>
</svg>
