<svg width="17" height="17" viewBox="0 0 17 17" fill="none" xmlns="http://www.w3.org/2000/svg">
<path d="M11.9741 8.41497L12.3249 8.77125L12.6868 8.41497L12.3249 8.05869L11.9741 8.41497ZM6.50471 13.0987C6.30794 13.2925 6.30549 13.609 6.49924 13.8058C6.69298 14.0026 7.00955 14.005 7.20632 13.8113L6.50471 13.0987ZM7.20632 3.01872C7.00955 2.82498 6.69298 2.82743 6.49923 3.02419C6.30549 3.22096 6.30794 3.53753 6.50471 3.73128L7.20632 3.01872ZM11.6233 8.05869L6.50471 13.0987L7.20632 13.8113L12.3249 8.77125L11.6233 8.05869ZM6.50471 3.73128L11.6233 8.77125L12.3249 8.05869L7.20632 3.01872L6.50471 3.73128Z" fill="#0057FF"/>
</svg>
