<svg width="17" height="17" viewBox="0 0 17 17" fill="none" xmlns="http://www.w3.org/2000/svg">
<path d="M11.8912 8.41497L12.242 8.77125L12.6039 8.41497L12.242 8.05869L11.8912 8.41497ZM6.42182 13.0987C6.22505 13.2925 6.2226 13.609 6.41635 13.8058C6.6101 14.0026 6.92667 14.005 7.12344 13.8113L6.42182 13.0987ZM7.12343 3.01872C6.92667 2.82498 6.61009 2.82743 6.41635 3.02419C6.2226 3.22096 6.22505 3.53753 6.42182 3.73128L7.12343 3.01872ZM11.5404 8.05869L6.42182 13.0987L7.12344 13.8113L12.242 8.77125L11.5404 8.05869ZM6.42182 3.73128L11.5404 8.77125L12.242 8.05869L7.12343 3.01872L6.42182 3.73128Z" fill="#747EA5"/>
</svg>
