<?xml version="1.0" encoding="utf-8"?>
<!-- Generator: Adobe Illustrator 26.3.1, SVG Export Plug-In . SVG Version: 6.00 Build 0)  -->
<svg version="1.1" id="레이어_1" xmlns="http://www.w3.org/2000/svg" xmlns:xlink="http://www.w3.org/1999/xlink" x="0px"
	 y="0px" viewBox="0 0 17 17" style="enable-background:new 0 0 17 17;" xml:space="preserve">
<style type="text/css">
	.st0{fill:#FFFFFF;}
</style>
<path class="st0" d="M12,8.4l0.4,0.4l0.4-0.4l-0.4-0.4L12,8.4z M6.5,13.1c-0.2,0.2-0.2,0.5,0,0.7C6.7,14,7,14,7.2,13.8L6.5,13.1z
	 M7.2,3C7,2.8,6.7,2.8,6.5,3c-0.2,0.2-0.2,0.5,0,0.7L7.2,3z M11.6,8.1l-5.1,5l0.7,0.7l5.1-5L11.6,8.1z M6.5,3.7l5.1,5l0.7-0.7L7.2,3
	L6.5,3.7z"/>
</svg>
